<svg width="262" height="159" viewBox="0 0 262 159" fill="none" xmlns="http://www.w3.org/2000/svg">
<path d="M240.8 108.6C238.9 93.7998 230.5 68.8998 225.4 62.1998C219.8 54.8998 217.5 52.5998 198.8 46.2998C197.8 41.2998 194.1 28.6998 189.7 23.3998C183 13.2998 164.7 10.9998 159.2 12.1998C159.2 12.1998 129.6 1.7998 95.4996 1.7998C84.6996 4.1998 72.1996 9.0998 65.3996 19.3998C60.7996 26.1998 65.9996 28.3998 63.6996 34.5998C63.0996 36.1998 49.0996 44.1998 43.3996 48.9998C40.7996 51.0998 37.8996 56.3998 35.8996 63.2998C31.8996 77.3998 36.1996 96.8998 31.1996 113.9C21.5996 146.7 2.09961 156.5 2.09961 156.5H260.5C260.3 156.4 244.9 139.8 240.8 108.6Z" fill="white"/>
<path d="M239.3 108.8C237.3 95.7001 233.3 82.7001 228.2 70.5001C225.7 64.6001 221.9 58.9001 216.6 55.4001C213.9 53.7001 210.9 52.4001 207.8 51.1001C204.7 49.9001 201.5 48.8001 198.4 47.7001C197.9 47.5001 197.5 47.1001 197.4 46.6001C197 44.6001 196.5 42.7001 195.9 40.7001C193.3 32.6001 190.5 23.6001 182.9 18.9001C177.1 15.4001 170.2 13.7001 163.5 13.4001C162.2 13.4001 160.8 13.4001 159.6 13.6001H159.2C159.1 13.6001 158.9 13.6001 158.8 13.5001C154 11.2001 148.7 9.80009 143.5 8.40009C127.9 4.80009 111.6 3.30009 95.6 3.20009C85.8 5.50009 72.1 10.9001 66.1 20.9001C65.1 22.5001 64.6 24.1001 64.8 25.9001C65 27.9001 65.7 30.1001 65.2 32.2001C65 33.1001 64.8 34.1001 64.4 34.9001C63.6 36.0001 62.3 36.7001 61.3 37.4001C56.1 40.8001 50.8 43.8001 45.8 47.3001C44.1 48.5001 42.5 49.6001 41.3 51.3001C37.8 56.3001 35.7 62.3001 34.8 68.3001C33.2 80.5001 34.8 92.9001 33.2 105.1C31.4 117.3 26.7 129.1 20.1 139.5C15.5 146.5 9.9 153 2.8 157.5L2.1 154.7H260.5L259.4 157.2C256.4 153.8 254 150.1 251.8 146.2C245 134.8 241 121.9 239.3 108.8ZM242.3 108.4C243.4 116.9 245.5 125.3 248.7 133.3C251.9 141.2 255.9 148.9 261.5 155.4C262.3 156.3 261.6 158 260.4 157.9H2C1.2 157.9 0.5 157.2 0.5 156.4C0.5 155.8 0.8 155.3 1.3 155.1C2.9 154.2 4.5 152.9 6 151.6C19.1 139.8 27.3 122.3 30 104.9C32.3 88.6001 28 71.0001 35.3 55.5001C37 51.9001 39.1 48.1001 42.5 45.8001C48.7 41.2001 55.5 37.8001 61.6 33.3001C61.7 33.3001 61.7 33.2001 61.7 33.2001C61.6 33.3001 61.5 33.5001 61.5 33.6001C62.1 32.2001 62.3 31.0001 62.1 29.4001C61.8 27.4001 61.3 24.7001 62 22.6001C62.3 21.4001 62.9 20.3001 63.5 19.4001C70.7 8.60009 83.4 3.8001 95.5 1.1001C98.9 1.2001 102.4 0.600098 105.8 0.600098C110.5 0.600098 115.3 1.30009 120 1.90009C133.5 4.00009 146.5 7.60009 159.8 10.5001L158.9 10.4001C162 9.80009 164.9 10.1001 167.9 10.5001C187.1 13.4001 193.6 21.8001 198.8 39.7001C199.4 41.7001 199.9 43.7001 200.4 45.8001L199.4 44.6001C209 48.0001 219.8 51.1001 225.9 60.0001C228.1 62.7001 229.7 65.9001 231.1 69.1001C236.2 81.9001 240.2 94.8001 242.3 108.4Z" fill="black"/>
<path d="M83.2002 42.8004C90.6002 58.6004 102.1 72.0004 115.8 82.6004C116.3 83.0004 115.8 83.8004 115.2 83.5004C103 77.7004 92.7002 67.8004 86.6002 55.8004C84.6002 51.8004 82.9003 47.5004 82.3003 43.0004C82.1003 42.5004 82.9002 42.3004 83.2002 42.8004Z" fill="black"/>
<path d="M200.3 46.1002C200.6 62.8002 193.8 79.9002 180.8 90.7002C180.5 91.0002 180.1 90.9002 179.8 90.6002C179.5 90.3002 179.6 89.9002 179.9 89.6002C182.8 86.8002 185.7 83.9002 187.9 80.5002C192.5 73.9002 195.3 66.1002 196.6 58.2002C197.2 54.3002 197.6 50.1002 197.3 46.2002C197.2 44.3002 200.2 44.1002 200.3 46.1002Z" fill="black"/>
<path d="M141.4 85.8003C139.1 93.9003 137.2 102.7 138.3 111.1C138.6 113 135.7 113.5 135.3 111.5C134.8 106.9 135.4 102.4 136.2 98.0003C137.1 93.6003 138.2 89.4003 139.7 85.2003C140.1 84.2003 141.8 84.7003 141.4 85.8003Z" fill="black"/>
<path d="M173.2 84.3001C176.5 91.4001 178.8 98.8001 180.6 106.3C180.8 107.1 180.3 107.9 179.5 108.1C178.7 108.3 177.9 107.8 177.7 107C176.7 101.4 175.4 95.8001 173.6 90.3001C173 88.5001 172.4 86.7001 171.7 84.9001C171.3 84.0001 172.7 83.3001 173.2 84.3001Z" fill="black"/>
<path d="M65.8 34.2001C69.5 54.4001 83.7 71.5001 100.8 82.4001C106.6 86.1001 112.8 89.3001 119.2 91.9001C119.6 92.1001 119.8 92.5001 119.6 92.9001C119.5 93.3001 119 93.5001 118.7 93.3001C112.1 90.9001 105.7 87.9001 99.7 84.3001C87.5 77.1001 76.8 67.1001 69.6 54.9001C65.9 48.6001 63 42.0001 61.6 34.8001C61.4 33.6001 62.2 32.5001 63.4 32.3001C64.5 32.0001 65.7 32.9001 65.8 34.2001Z" fill="black"/>
<path d="M135.4 113.3C132.6 113 130.6 110.4 131.2 107.6L132.3 102.3C132.7 100.2 134.7 98.7001 136.8 99.0001C138.9 99.2001 140.6 101 140.6 103.2V108.6C140.7 111.4 138.3 113.6 135.4 113.3Z" fill="black"/>
<path d="M181.5 109.6C178.8 110.6 175.9 109 175.2 106.2L173.9 100.9C173.4 98.8 174.5 96.7 176.6 95.9C178.6 95.2 180.9 96.1 181.8 98L184.2 102.9C185.4 105.6 184.2 108.7 181.5 109.6Z" fill="black"/>
<path d="M51.1998 156.4C51.1998 156.4 50.2998 134.1 47.2998 128.1" stroke="black" stroke-width="5.1257" stroke-miterlimit="10" stroke-linecap="round" stroke-linejoin="round"/>
<path d="M227.7 106.6C227.7 106.6 233.3 138 231.1 156.4" stroke="black" stroke-width="5.1257" stroke-miterlimit="10" stroke-linecap="round" stroke-linejoin="round"/>
<path d="M211.6 136.8C211.6 136.8 196.8 139 183.8 138.4" stroke="black" stroke-width="5.1257" stroke-miterlimit="10" stroke-linecap="round" stroke-linejoin="round"/>
<path d="M97.0997 30.6002C95.6997 26.6002 95.0997 22.5002 95.3997 18.3002C95.3997 17.9002 95.6997 17.7002 96.0997 17.7002C96.3997 17.7002 96.6997 18.0002 96.6997 18.3002C96.9997 22.1002 98.0997 26.0002 99.8997 29.3002C100.8 31.3002 97.7997 32.6002 97.0997 30.6002Z" fill="black"/>
<path d="M164.7 35.9002C161.9 29.6002 155 26.4002 148.9 24.2002C145.1 23.0002 140.9 22.1002 136.9 21.5002C127.2 20.0002 113.5 17.7002 103.8 16.7002C103.7 16.7002 103.7 16.5002 103.8 16.5002C106.6 16.2002 109.4 16.2002 112.2 16.2002C120.6 16.4002 129 17.3002 137.3 18.6002C145.6 19.9002 154.5 22.4002 160.8 28.4002C162.8 30.5002 164.6 32.9002 165.1 35.8002C165.2 36.1002 164.8 36.2002 164.7 35.9002Z" fill="black"/>
</svg>
