<svg width="256" height="144" viewBox="0 0 256 144" fill="none" xmlns="http://www.w3.org/2000/svg">
<path d="M254.3 142.399H1.40039C1.40039 142.399 5.50039 101.199 21.1004 68.2994C26.8004 56.2994 28.7004 38.6994 40.0004 30.9994C51.6004 23.0994 76.3004 16.7994 84.9004 15.7994C89.7004 15.1994 88.6004 14.7994 92.0004 13.8994C93.1004 16.8994 104.2 46.2994 130.8 57.0994C153.7 66.3994 167.3 60.1994 169.4 49.8994C170.7 43.2994 166.6 32.4994 164.5 28.9994C163.3 27.9994 162.5 26.4994 162.1 24.9994L161.3 21.6994C163.1 21.2994 164.8 20.7994 166.6 20.2994C167.5 20.4994 168.5 20.3994 169.3 20.8994C177.7 25.4994 203 31.9994 216.2 45.8994C221.4 51.2994 229.5 70.4994 230.8 82.9994C234.5 117.299 254.3 142.399 254.3 142.399Z" fill="white"/>
<path d="M255.701 143C180.701 143.2 75.4007 144.1 1.50074 143.8C0.600738 143.8 -0.0992622 143 0.000737827 142.1C0.900738 135 2.10074 128.1 3.50074 121.1C7.20074 102 12.8007 83.1997 21.2007 65.6997C24.6007 57.4997 26.3007 48.8997 30.4007 40.8997C32.8007 36.0997 36.4007 31.4997 41.2007 28.7997C48.9007 24.1997 57.4007 21.2997 65.9007 18.6997C71.0007 17.1997 76.2007 15.7997 81.4007 14.7997C84.0007 14.1997 86.6007 14.2997 89.0007 13.2997C90.3007 12.7997 92.8007 11.2997 93.6007 13.1997C100.901 32.0997 115.001 49.9997 134.701 56.6997C144.901 60.3997 162.601 63.4997 167.801 50.9997C169.401 46.2997 167.901 41.1997 166.501 36.4997C165.701 34.0997 164.701 31.5997 163.501 29.5997L163.801 29.8997C162.001 28.3997 161.001 25.9997 160.701 23.7997L160.201 21.7997C160.001 20.9997 160.501 20.1997 161.301 19.9997C163.101 19.6997 164.901 19.0997 166.701 18.5997C167.701 18.5997 169.301 18.7997 170.601 19.4997C181.601 24.5997 194.101 28.2997 204.601 34.6997C210.501 38.1997 216.501 42.2997 220.301 48.1997C227.301 59.8997 231.801 73.1997 233.101 86.6997C235.901 106 243.701 124.5 254.901 140.4L255.301 140.9L255.501 141.1L255.601 141.2C255.601 141.2 255.601 141.1 255.701 141.4C255.801 142 255.801 142.7 255.701 143ZM253.001 141.7C252.801 142 252.801 142.7 253.001 143C253.201 143.2 253.101 143.1 253.101 143.1L253.001 143L252.801 142.7L252.401 142.2C246.101 132.6 240.901 122.3 237.101 111.6C234.101 103.7 231.901 95.4997 230.701 87.0997C230.301 84.0997 229.801 80.0997 229.101 77.1997C226.801 67.5997 223.101 57.9997 217.801 49.6997C216.101 46.9997 213.601 44.8997 211.101 42.8997C203.201 36.8997 193.901 33.1997 184.701 29.5997L175.301 26.0997C172.201 24.8997 168.501 23.5997 166.601 21.6997H167.401C165.601 22.2997 163.801 22.7997 162.001 23.1997L163.101 21.3997L163.601 23.3997C164.001 25.1997 164.401 26.7997 165.801 27.9997C165.901 28.0997 166.001 28.1997 166.101 28.2997C168.801 33.1997 170.401 38.2997 171.201 43.7997C172.901 53.2997 166.901 60.7997 157.701 62.5997C145.001 65.0997 129.801 59.5997 119.301 52.4997C106.101 43.1997 96.6007 29.3997 90.8007 14.4997L92.6007 15.3997C91.7007 15.6997 91.1007 15.9997 90.2007 16.3997C89.3007 16.8997 88.2007 17.1997 87.2007 17.3997C87.3007 17.9997 87.0007 16.1997 87.4007 18.5997C85.5007 18.7997 84.0007 18.8997 82.2007 19.2997C77.1007 20.0997 72.0007 21.2997 67.0007 22.6997C60.3007 24.4997 53.7007 26.6997 47.5007 29.5997C44.4007 31.0997 41.4007 32.6997 39.1007 34.7997C36.7007 36.8997 34.8007 39.6997 33.2007 42.6997C28.5007 51.7997 26.2007 62.6997 21.4007 71.8997C11.4007 94.1997 5.80074 118.5 3.10074 142.8L1.60074 141.2C74.2007 140.9 179.201 141.3 253.001 141.7Z" fill="black"/>
<path d="M173.101 76.9998C169.601 77.9998 157.401 65.2998 154.901 63.0998C152.601 65.6998 136.401 83.9998 128.401 82.7998C119.601 81.4998 97.101 66.3998 85.701 42.6998C79.401 29.6998 79.201 21.7998 79.901 17.4998C80.201 15.4998 80.801 14.1998 81.101 13.4998C82.101 11.1998 89.301 2.29976 91.101 2.39976V2.49977C92.001 12.0998 95.101 21.3998 100.301 29.4998C106.701 39.3998 116.801 51.2998 130.901 56.9998C153.801 66.2998 165.701 57.0998 167.701 46.7998C169.001 40.1998 166.701 32.3998 164.601 28.8998C163.401 27.8998 162.601 26.3998 162.201 24.8998L161.401 21.5998C163.201 21.1998 164.901 20.6998 166.701 20.1998C167.201 19.9998 167.801 19.8998 168.301 19.6998C168.601 20.0998 169.001 20.4998 169.301 20.8998C173.501 25.6998 177.901 32.2998 180.301 43.4998C184.301 61.3998 177.001 75.7998 173.101 76.9998Z" fill="black"/>
<path d="M154.601 62.5C154.601 62.5 161.901 66.7 161.701 70.2C161.501 73.7 163.601 84.8 163.601 84.8" stroke="black" stroke-width="3" stroke-miterlimit="10" stroke-linecap="round" stroke-linejoin="round"/>
<path d="M154.501 75.8C155.826 75.8 156.901 74.7255 156.901 73.4C156.901 72.0745 155.826 71 154.501 71C153.175 71 152.101 72.0745 152.101 73.4C152.101 74.7255 153.175 75.8 154.501 75.8Z" fill="black"/>
<path d="M155.3 85.1999C156.626 85.1999 157.7 84.1254 157.7 82.7999C157.7 81.4744 156.626 80.3999 155.3 80.3999C153.975 80.3999 152.9 81.4744 152.9 82.7999C152.9 84.1254 153.975 85.1999 155.3 85.1999Z" fill="black"/>
<path d="M50.9004 142.4L46.4004 105.3" stroke="#544D4D" stroke-width="3" stroke-miterlimit="10" stroke-linecap="round" stroke-linejoin="round"/>
<path d="M225.601 92.7002C225.601 92.7002 222.601 100 223.501 107.3C224.401 114.6 227.001 125.3 223.301 142.4" stroke="#544D4D" stroke-width="3" stroke-miterlimit="10" stroke-linecap="round" stroke-linejoin="round"/>
<path d="M91.1004 2.39995C91.1004 2.39995 123.4 -7.60004 168.4 19.6C168.4 19.6 180.8 53 173.1 58.1C165.4 63.2 141.2 63.7 124.3 58.1C107.3 52.6 85.5004 25.0999 91.1004 2.39995Z" fill="black"/>
</svg>
