<svg width="133" height="201" viewBox="0 0 133 201" fill="none" xmlns="http://www.w3.org/2000/svg">
<path d="M93.0002 186.6C90.9002 196.9 77.3002 203.1 54.4002 193.8C30.6002 184.2 20.3002 161.3 17.7002 154.5C31.8002 128.1 22.0002 109.8 22.0002 109.8C54.5002 107 82.9002 145 82.9002 145L87.3002 163.8C87.7002 165.4 88.5002 166.8 89.7002 167.8C91.8002 171.5 94.3002 180 93.0002 186.6Z" fill="white"/>
<path d="M17.2006 154.8C19.1006 151.9 20.3006 148.5 21.1006 145.2C22.6006 138.3 23.1006 131.3 23.2006 124.3V121.7C22.9006 119.1 22.0006 116.4 21.0006 114C19.7006 110.8 24.4006 108.8 25.9006 112C26.1006 112.4 26.1006 113.1 26.1006 113.5C26.4006 127.1 27.0006 144.6 18.4006 155.9C17.8006 156.5 16.6006 155.6 17.2006 154.8Z" fill="black"/>
<path d="M84.0003 144.8C85.5003 145.7 86.0003 146.9 86.2003 148.1C86.8003 150.5 86.6003 153.1 87.2003 155.6C87.7003 158 89.2003 160.3 89.6003 162.8C90.1003 165.4 91.6003 170.9 92.2003 173.6C92.4003 174.2 92.0003 174.9 91.3003 175C90.9003 175.1 90.6003 175 90.3003 174.8C89.0003 173.7 88.4003 172.6 87.6003 171.2C86.3003 168.8 85.4003 166.6 84.6003 163.9C83.9003 161.5 84.2003 158.9 83.6003 156.4C83.1003 154 81.7003 151.7 81.2003 149.2C80.9003 148 80.8003 146.7 81.7003 145.2C82.3003 144.6 83.3003 144.4 84.0003 144.8Z" fill="black"/>
<path d="M91.2005 171.2C72.1005 170.2 56.5005 164.2 41.3005 137.1C54.1005 148.4 69.2005 152.7 85.1005 154.7L87.2005 163.9C87.6005 165.5 90.0005 170.2 91.2005 171.2Z" fill="black"/>
<path d="M90.401 167.5C93.801 173.9 95.801 181.9 93.701 189C92.101 194 87.501 197.7 82.501 199.1C70.901 202.2 57.501 197.3 47.201 191.8C34.501 184.7 25.101 172.8 19.101 159.8C18.701 158.8 20.101 158 20.701 159C22.801 163.2 25.201 167.3 27.901 171C30.601 174.8 33.701 178.3 37.201 181.4C47.401 190.6 61.201 196.3 75.001 196.3C89.201 195.9 94.601 188.4 91.301 174.6C90.801 172.4 90.001 170.1 88.901 168.2C88.301 167.4 89.801 166.5 90.401 167.5Z" fill="black"/>
<path d="M129.1 47.4001C130.9 55.8001 129.5 61.4001 128.7 84.6001C119.5 123 120.2 144.3 115.1 149.4C111.1 153.4 87.2002 158.6 69.5002 154.1C60.5002 151.8 52.9002 146.6 46.7002 142.9C38.9002 138.2 33.0002 122.9 27.4002 113.6C23.0002 106.3 22.5002 115.9 16.8002 109.6C8.90018 101 -0.599824 83.7001 4.10018 53.1001C11.7002 3.50006 51.0002 -2.29994 80.1002 3.20006C109.3 8.70006 124.3 25.3001 129.1 47.4001Z" fill="white"/>
<path d="M21.7003 118.4C18.2003 112.6 13.2003 107.8 10.0003 101.8C0.300301 83.6001 -1.6997 61.5001 3.9003 41.7001C15.6003 -0.499886 58.0003 -6.69988 94.8003 5.70012C115.4 12.7001 129.9 30.1001 132 52.0001C132.2 59.0001 130.4 65.5001 130.3 72.4001C129.8 90.6001 124.1 108.1 121.9 125.6C121.4 131.1 121.4 136.9 120.6 142.5C120.4 143.7 120.2 144.8 119.8 146.1C118.9 148.8 116.9 150.7 114.7 152.2C106.4 157.3 97.0003 158.2 87.6003 158.7C68.0003 159.5 50.8003 153.8 39.1003 137.5C38.7003 136.9 39.5003 136.2 40.0003 136.8C53.1003 150.8 68.8003 155.3 87.4003 154.4C95.3003 154 112.2 152.5 115.7 144.8C117.4 138.5 117.4 131.9 118.4 125.3C119.5 117.5 122.5 106.6 124.3 98.9001C126.3 90.2001 128 81.4001 128.1 72.5001C128.2 68.0001 128.2 63.5001 128.2 59.0001C128.4 54.5001 127.5 50.6001 126.4 46.3001C122.4 29.2001 110.1 15.0001 93.5003 8.70012C77.2003 2.40012 58.3003 0.800122 41.6003 6.30012C24.6003 11.7001 13.0003 26.3001 8.6003 43.3001C6.3003 51.7001 5.1003 60.5001 4.5003 69.2001C4.0003 78.0001 4.9003 87.0001 8.4003 95.2001C10.9003 101.4 15.0003 106.8 19.8003 111.3L24.5003 116.2C26.7003 118.2 23.3003 120.8 21.7003 118.4Z" fill="black"/>
<path d="M33.5004 86.6C33.5004 86.6 30.4004 71.5999 15.8004 73.3999C3.20039 74.9999 -1.19961 105.2 27.4004 113.6" fill="white"/>
<path d="M26.1006 100.5C23.8006 99.2002 22.2006 97.0002 22.1006 94.3002C22.2006 92.3002 22.5006 90.0002 22.0006 88.0002C21.7006 86.1002 19.7006 85.6002 18.2006 85.7002C16.6006 86.0002 15.6006 88.0002 15.3006 89.6002C15.3006 89.7002 15.2006 90.0002 15.2006 90.1002C15.1006 90.6002 14.3006 90.6002 14.1006 90.1002C12.8006 86.2002 15.7006 81.9002 19.9006 82.4002C25.8006 82.8002 26.6006 89.0002 25.5006 93.7002C24.9006 95.7002 25.7006 97.5002 26.8006 99.2002L27.0006 99.5002C27.5006 100.1 26.7006 100.9 26.1006 100.5Z" fill="black"/>
<path d="M106.1 76C107.6 83.1 110.4 89.7 113.9 95.9C117 103.5 109 110.7 101.9 110.4C101.1 110.4 101 109.3 101.7 109.1C106.2 107.7 110.3 104.7 111 100.1C111.3 98.7 110.9 97.5 110.2 96.3C106.9 90.1 104.9 83 105.4 76C105.4 75.5 106.1 75.5 106.1 76Z" fill="black"/>
<path d="M33 86.6998C30.7 80.7998 25.7 75.1998 19 75.2998C18.4 75.1998 17.4 75.3998 16.8 75.3998C15.1 75.4998 13.7 76.0998 12.4 77.2998C6.00003 83.6998 7.10003 94.9998 12.3 102.1C14.1 104.6 16.4 106.8 19 108.6C21.6 110.4 24.5 111.8 27.6 113C28.3 113.2 28 114.3 27.3 114.2C20.6 112.8 14.2 109.5 9.80003 104C3.00003 95.7998 1.60003 82.0998 9.70003 74.0998C11.5 72.4998 14 71.2998 16.5 71.2998C17.3 71.2998 18.5 71.0998 19.3 71.2998C23.5 71.4998 27.5 73.5998 30.1 76.8998C32.4 79.6998 33.7 83.0998 34.1 86.4998C34.1 87.0998 33.2 87.2998 33 86.6998Z" fill="black"/>
</svg>
