<svg width="132" height="201" viewBox="0 0 132 201" fill="none" xmlns="http://www.w3.org/2000/svg">
<path d="M93 186.6C90.9 196.9 77.2999 203.1 54.3999 193.8C30.5999 184.2 20.3 161.3 17.7 154.5C31.8 128.1 22 109.8 22 109.8C54.5 107 82.8999 145 82.8999 145L87.3 163.8C87.7 165.4 88.5 166.8 89.7 167.8C91.7999 171.5 94.3 180 93 186.6Z" fill="white"/>
<path d="M17.2004 154.8C19.1004 151.9 20.3004 148.5 21.1004 145.2C22.6004 138.3 23.1004 131.3 23.2004 124.3V121.7C22.9004 119.1 22.0004 116.4 21.0004 114C19.7004 110.8 24.4004 108.8 25.9004 112C26.1004 112.4 26.1004 113.1 26.1004 113.5C26.4004 127.1 27.0004 144.6 18.4004 155.9C17.8004 156.5 16.6004 155.6 17.2004 154.8Z" fill="black"/>
<path d="M84.0001 144.8C85.5001 145.7 86.0001 146.9 86.2001 148.1C86.8001 150.5 86.6001 153.1 87.2001 155.6C87.7001 158 89.2001 160.3 89.6001 162.8C90.1001 165.4 91.6001 170.9 92.2001 173.6C92.4001 174.2 92.0001 174.9 91.3001 175C90.9001 175.1 90.6001 175 90.3001 174.8C89.0001 173.7 88.4001 172.6 87.6001 171.2C86.3001 168.8 85.4001 166.6 84.6001 163.9C83.9001 161.5 84.2001 158.9 83.6001 156.4C83.1001 154 81.7001 151.7 81.2001 149.2C80.9001 148 80.8001 146.7 81.7001 145.2C82.3001 144.6 83.3001 144.4 84.0001 144.8Z" fill="black"/>
<path d="M91.2003 171.2C72.1003 170.2 56.5003 164.2 41.3003 137.1C54.1003 148.4 69.2003 152.7 85.1003 154.7L87.2003 163.9C87.6003 165.5 90.0003 170.2 91.2003 171.2Z" fill="black"/>
<path d="M90.4008 167.5C93.8008 173.9 95.8008 181.9 93.7008 189C92.1008 194 87.5008 197.7 82.5008 199.1C70.9008 202.2 57.5008 197.3 47.2008 191.8C34.5008 184.7 25.1008 172.8 19.1008 159.8C18.7008 158.8 20.1008 158 20.7008 159C22.8008 163.2 25.2008 167.3 27.9008 171C30.6008 174.8 33.7008 178.3 37.2008 181.4C47.4008 190.6 61.2008 196.3 75.0008 196.3C89.2008 195.9 94.6008 188.4 91.3008 174.6C90.8008 172.4 90.0008 170.1 88.9008 168.2C88.3008 167.4 89.8008 166.5 90.4008 167.5Z" fill="black"/>
<path d="M129.101 47.4C130.901 55.8 127.401 59.6 127.401 82.1C127.401 93.4 128.401 100.6 125.101 114.3C123.601 120.6 118.901 128.3 115.701 134.1C112.501 139.9 114.601 149.6 109.201 154.1C93.0006 167.6 73.4006 163.8 55.6006 152.4C54.9006 152 51.0006 147.4 49.8006 146.5C45.7006 143.4 38.9006 140.1 36.9006 138.1C31.3006 132.6 35.5006 122.9 32.1006 117.2C27.7006 109.9 22.4006 115.8 16.7006 109.5C8.80056 100.9 -0.699433 83.6 4.00057 53C11.6006 3.39996 50.9006 -2.40004 80.0006 3.09996C109.301 8.69996 124.301 25.3 129.101 47.4Z" fill="white"/>
<path d="M21.7004 118.4C19.4004 114.6 16.5004 111.3 13.8004 107.7C9.80044 102.2 6.80044 96.0999 4.80044 89.6999C-3.79956 62.1999 0.90044 26.3999 26.5004 9.39989C49.9004 -6.40011 95.4004 -1.40011 115.7 18.0999C124.7 26.1999 133.4 43.0999 131.5 55.2999C129.8 63.9999 128.3 72.5999 128.6 81.4999C128.6 85.8999 129.1 90.2999 129.1 94.7999C129.4 103.8 127.8 112.9 124.4 121.3C122.7 125.5 120.6 129.5 118.3 133.4C117.9 134 117.6 134.9 117.4 136C116.6 139.2 116.2 142.4 115.5 145.7C114.7 149.2 113.8 153.2 110.8 155.8C102.5 162.5 91.4005 164.5 81.1004 163.7C73.9005 163.1 66.9004 161.2 60.4004 158.1C54.7004 154.7 50.9004 149.2 46.1004 144.8C45.6004 144.3 46.2004 143.5 46.8004 143.8C50.3004 145.7 54.5004 149.1 57.7004 151.6C61.2004 154.5 64.8004 155.7 68.9004 156.9C73.0004 158.1 77.2004 159 81.4004 159.3C90.7004 160 100.7 158.3 108.2 152.5C110.2 150.6 110.9 147.6 111.6 144.8C112.5 141 113 137 114.3 133.3C114.5 132.7 114.9 131.9 115.2 131.5C117.6 127.9 119.8 124.1 121.6 120.2C125.3 112.3 127.2 103.7 127.2 94.9999C127.2 90.5999 126.8 86.1999 126.7 81.7999C126.6 75.0999 126.5 68.3999 127.1 61.6999C127.4 58.3999 127.9 55.2999 127.8 52.0999C126.5 40.6999 121.1 29.4999 113.1 21.2999C95.8004 3.69989 63.0004 -1.30011 40.3004 7.09989C13.5004 17.0999 6.50044 44.1999 5.00044 70.0999C4.00044 85.5999 8.70044 100.8 20.4004 111.5L25.1004 116.4C26.7004 118.2 23.3004 120.8 21.7004 118.4Z" fill="black"/>
<path d="M33.5004 86.6C33.5004 86.6 30.4004 71.5999 15.8004 73.3999C3.20039 74.9999 -1.19961 105.2 27.4004 113.6" fill="white"/>
<path d="M26.1004 100.5C23.8004 99.1997 22.2004 96.9997 22.1004 94.2997C22.2004 92.2997 22.5004 89.9997 22.0004 87.9997C21.7004 86.0997 19.7004 85.5997 18.2004 85.6997C16.6004 85.9997 15.6004 87.9997 15.3004 89.5997C15.3004 89.6997 15.2004 89.9997 15.2004 90.0997C15.1004 90.5997 14.3004 90.5997 14.1004 90.0997C12.8004 86.1997 15.7004 81.8997 19.9004 82.3997C25.8004 82.7997 26.6004 88.9997 25.5004 93.6997C24.9004 95.6997 25.7004 97.4997 26.8004 99.1997L27.0004 99.4997C27.5004 100.1 26.7004 100.9 26.1004 100.5Z" fill="black"/>
<path d="M106.101 76C107.601 83.1 110.401 89.7 113.901 95.9C117.001 103.5 109.001 110.7 101.901 110.4C101.101 110.4 101.001 109.3 101.701 109.1C106.201 107.7 110.301 104.7 111.001 100.1C111.301 98.7 110.901 97.5 110.201 96.3C106.901 90.1 104.901 83 105.401 76C105.401 75.5 106.101 75.5 106.101 76Z" fill="black"/>
<path d="M33 86.6998C30.7 80.7998 25.7 75.1998 19 75.2998C18.4 75.1998 17.4 75.3998 16.8 75.3998C15.1 75.4998 13.7 76.0998 12.4 77.2998C6.00003 83.6998 7.10003 94.9998 12.3 102.1C14.1 104.6 16.4 106.8 19 108.6C21.6 110.4 24.5 111.8 27.6 113C28.3 113.2 28 114.3 27.3 114.2C20.6 112.8 14.2 109.5 9.80003 104C3.00003 95.7998 1.60003 82.0998 9.70003 74.0998C11.5 72.4998 14 71.2998 16.5 71.2998C17.3 71.2998 18.5 71.0998 19.3 71.2998C23.5 71.4998 27.5 73.5998 30.1 76.8998C32.4 79.6998 33.7 83.0998 34.1 86.4998C34.1 87.0998 33.2 87.2998 33 86.6998Z" fill="black"/>
</svg>
