<svg width="65" height="30" viewBox="0 0 65 30" fill="none" xmlns="http://www.w3.org/2000/svg">
<path d="M16.6002 22.8C11.2002 22.4 6.20023 20.0999 2.00023 16.6999C1.20023 16.0999 2.10022 14.9 2.90022 15.5C6.00022 17.5 9.40023 18.9 13.1002 19.5C14.3002 19.7 15.6002 19.8 16.7002 19.8C18.7002 19.8 18.7002 22.9 16.6002 22.8Z" fill="black"/>
<path d="M45.9994 21.4002C49.0994 21.0002 52.6994 20.5002 55.0994 18.3002C55.2994 18.0002 55.7994 18.0002 55.9994 18.3002C56.8994 19.2002 54.5994 20.7002 53.9994 21.2002C51.6994 22.7002 49.0994 23.7002 46.4994 24.4002C45.6994 24.6002 44.8994 24.1002 44.6994 23.3002C44.3994 22.4002 45.0994 21.5002 45.9994 21.4002Z" fill="black"/>
<path d="M21.3998 13.5999C23.2998 14.6999 25.6998 13.1999 25.7998 10.8999C25.7998 9.69992 25.5998 8.39992 24.7998 7.29992C22.3998 4.09992 10.6998 -0.800077 2.59984 1.29992C-4.40016 3.09992 12.6998 8.59993 21.3998 13.5999Z" fill="black"/>
<path d="M52.0995 14.7996C50.6995 15.8996 48.3995 14.5996 48.0995 12.4996C47.8995 11.3996 47.9995 10.1996 48.4995 9.1996C50.0995 6.1996 57.4995 2.0996 63.4995 4.0996C68.6995 5.9996 58.7995 9.89961 52.0995 14.7996Z" fill="black"/>
<path d="M5.29987 17.8999C4.49987 18.5999 3.99986 19.6999 3.89986 20.7999L3.79987 23.5999C3.69987 25.9999 5.49987 27.9999 7.79987 28.0999C10.1999 28.1999 12.1999 26.3999 12.2999 24.0999L12.3999 21.2999C12.3999 21.1999 12.3999 21.0999 12.3999 20.9999C9.69986 20.7999 7.49987 19.6999 5.29987 17.8999Z" fill="black"/>
<path d="M46.2995 22.7002C46.2995 22.8002 46.2995 22.8002 46.2995 22.9002L46.1995 25.5002C46.0995 27.7002 47.7995 29.6002 49.9995 29.7002C52.1995 29.8002 54.0995 28.1002 54.1995 25.9002L54.2995 23.3002C54.3995 22.3002 53.9995 21.4002 53.4995 20.7002C51.2995 22.0002 48.7995 22.3002 46.2995 22.7002Z" fill="black"/>
</svg>
