<svg width="68" height="34" viewBox="0 0 68 34" fill="none" xmlns="http://www.w3.org/2000/svg">
<path d="M8.80021 32.1999C6.40021 32.0999 4.60021 30.0999 4.80021 27.6999L4.9002 24.8999C5.0002 22.4999 7.0002 20.6999 9.4002 20.8999C11.8002 20.9999 13.6002 22.9999 13.4002 25.3999L13.3002 28.1999C13.2002 30.4999 11.2002 32.2999 8.80021 32.1999Z" fill="black"/>
<path d="M50.8999 33.6999C48.6999 33.5999 46.9999 31.6999 47.0999 29.4999L47.1999 26.8999C47.2999 24.6999 49.1999 22.9999 51.3999 23.0999C53.5999 23.1999 55.2999 25.0999 55.1999 27.2999L55.0999 29.8999C54.9999 32.0999 53.0999 33.7999 50.8999 33.6999Z" fill="black"/>
<path d="M17.8002 26.7996C14.5002 24.5996 10.9002 23.0996 6.90024 23.8996C5.60024 24.0996 4.30024 24.4996 3.50024 25.3996C3.20024 25.7996 2.50024 25.6996 2.50024 25.0996C2.60024 23.0996 4.30024 21.7996 5.90024 20.9996C9.00024 19.3996 13.3003 19.6996 16.1003 21.7996C17.1003 22.3996 20.5002 26.0996 18.7002 26.8996C18.3002 27.0996 18.1002 26.9996 17.8002 26.7996Z" fill="black"/>
<path d="M46.4001 27.3C46.4001 23.1 51.6002 21.6 54.8002 23.1C56.6002 23.9 57.9001 25.5 58.4001 27.4C58.6001 28 57.7002 28.5 57.3002 28C55.6002 26 52.7001 25 50.4001 26.2C49.7001 26.6 49.6001 26.9 49.4001 27.3C49.4001 29.3 46.5001 29.2 46.4001 27.3Z" fill="black"/>
<path d="M22.6002 10.2998C24.7002 10.9998 26.8002 9.09979 26.4002 6.79979C26.2002 5.59979 25.7002 4.39979 24.7002 3.49979C21.7002 0.799792 9.30022 -1.60021 1.80022 1.89979C-4.79978 5.09979 13.0002 7.0998 22.6002 10.2998Z" fill="black"/>
<path d="M52.5006 11.8996C50.8006 12.4996 49.0006 10.6996 49.3006 8.59957C49.4006 7.49957 49.8006 6.39957 50.6006 5.59957C53.0006 3.19957 61.2006 1.29957 66.4006 4.99957C70.9006 8.09957 60.3006 8.99957 52.5006 11.8996Z" fill="black"/>
</svg>
