<svg width="152" height="151" viewBox="0 0 152 151" fill="none" xmlns="http://www.w3.org/2000/svg">
<path d="M149 73.1C146.2 81.8 139.5 89.1 135.2 94C136.2 89.3 135.3 86.5 135.5 83.2C135.8 78.7 137.4 73.7 137.1 71.7C136.9 69.9 136.5 68.2 136.1 66.4C135.6 64.2 135 62.1 134.3 60C118.6 75.3 91.7 60.2 91.7 60.2C91.7 60.2 86 64.9 76 63.8C65.3 62.7 62.4 56.1 62.4 56.1C59.5 76.3 40.4 68.6 43.9 88.7C44.9 94.2 44.9 99.5 40.2 105C39.4 102.2 35.5 90.8 22.7 92.4C10.6 93.9 5.99996 121.9 31 131.5C30.7 140.8 31.7 153.4 30.7 150.1C23.7 128.5 9.69996 131.9 3.09996 115.6C-4.41074e-05 107.8 0.499956 100.9 2.09996 95.8C3.69996 90.9 3.59996 85.6 1.99996 80.7C0.199957 75 -1.20004 66.4 2.09996 56C7.69996 38.2 19.7 34.1 22.8 32C25.9 29.9 24.4 10.7 46.1 4.7C63.4 -0.100002 76.3999 10 80.2 9.3C84 8.6 110.6 -8.9 131.1 7.6C150.9 23.6 143.5 42.5 143.5 42.5C143.5 42.5 155.8 52 149 73.1Z" fill="black"/>
</svg>
