<svg width="147" height="140" viewBox="0 0 147 140" fill="none" xmlns="http://www.w3.org/2000/svg">
<path d="M145.7 34.6001C152.8 8.90011 124 -7.19988 116.3 4.40012C110.7 12.8001 89.1003 6.30012 56.3003 5.70012C23.5003 5.00012 14.7003 22.4001 14.3003 41.1001C14.3003 41.1001 -0.0997385 48.7001 0.800261 75.5001C1.70026 103.3 30.3003 125.7 33.8003 139.8C33.8003 139.8 34.2003 141.6 30.4003 122.3C8.60026 111.8 13.2003 85.9001 24.9003 84.4001C33.8003 83.3001 38.5003 88.5001 40.7003 92.7001C41.6003 93.9001 50.1003 104.3 50.3003 70.3001C50.4003 47.1001 73.0003 39.5001 98.7003 48.9001C112.1 53.8001 126.2 57.4001 135.9 50.4001C137.5 55.0001 139.2 60.1001 137.9 66.3001C141.8 62.7001 145.1 57.4001 146 50.9001C146.6 47.0001 145.6 43.6001 143.4 40.6001C144.3 38.9001 145.1 36.8001 145.7 34.6001Z" fill="black"/>
</svg>
