<svg width="91" height="52" viewBox="0 0 91 52" fill="none" xmlns="http://www.w3.org/2000/svg">
<path d="M79.7998 29.0998C77.8998 31.6998 76.8998 32.3998 75.1998 32.2998C73.2998 32.1998 71.6998 29.1998 66.0998 29.0998C61.4998 28.9998 53.9998 31.4998 44.4998 33.4998C33.3998 35.7998 13.7998 26.5998 9.4998 12.7998C8.2998 8.8998 7.2998 4.8998 6.2998 1.4998C5.9998 0.499796 4.6998 0.199796 4.0998 0.999796C3.3998 1.8998 2.6998 2.69979 1.8998 3.39979C0.899803 4.39979 0.299805 5.79979 0.299805 7.19979C0.299805 8.99979 0.399803 10.5998 0.399803 11.6998C1.0998 20.4998 2.1998 23.2998 6.1998 28.9998C10.1998 34.6998 24.1998 50.0998 42.3998 51.4998C60.6998 52.7998 70.7998 51.2998 80.9998 39.5998C90.1998 28.9998 90.4998 6.9998 90.4998 6.9998C85.5998 21.7998 82.2998 25.5998 79.7998 29.0998Z" fill="black"/>
</svg>
