<svg width="109" height="40" viewBox="0 0 109 40" fill="none" xmlns="http://www.w3.org/2000/svg">
<path d="M57.7002 33.5004C57.7002 33.5004 48.3002 39.4004 37.7002 39.3004C27.1002 39.2004 25.8002 30.9004 25.7002 26.4004C25.7002 26.4004 27.1002 32.9004 33.5002 35.3004C39.8002 37.7004 57.7002 33.5004 57.7002 33.5004Z" fill="black"/>
<path d="M87.8994 32.4004C87.8994 32.4004 90.1994 35.2004 93.2994 37.2004C95.3994 38.6004 98.1994 37.1004 98.1994 34.6004C98.1994 34.6004 92.3994 34.9004 87.8994 32.4004Z" fill="black"/>
<path d="M61.1995 6.80026C55.7995 6.30026 42.1995 5.20025 36.9995 4.70025L32.9995 4.40025C29.6995 4.20025 27.0995 7.00025 26.4995 10.2003C26.2995 11.2003 26.2995 12.9002 26.2995 13.9002V18.0003C26.2995 20.5003 26.1995 23.1003 27.0995 25.5003C28.6995 31.1003 33.7995 35.6003 39.7995 34.9002C40.3995 34.8003 44.0995 34.4003 44.7995 34.3003L52.8995 33.4002C55.4995 33.2002 57.8995 32.5003 60.1995 31.1003C63.3995 29.2003 66.4995 26.3003 66.2995 22.2003L66.4995 18.2003C66.6995 13.2003 68.0995 7.30026 61.1995 6.80026ZM61.4995 3.50025C66.1995 3.90025 69.3995 8.80026 69.0995 13.3003C69.0995 13.9003 68.8995 17.7002 68.7995 18.4002C68.7995 19.2002 68.5995 22.8003 68.4995 23.5003C67.9995 30.3003 60.3995 35.1003 54.1995 36.0003C50.9995 36.4003 44.2995 37.3003 41.0995 37.7003C40.2995 37.8003 39.1995 37.9003 38.3995 38.0003C37.9995 38.0003 37.0995 37.9002 36.6995 37.9002C28.1995 36.8003 22.7995 28.1003 22.9995 20.0003C22.9995 18.7003 22.9995 15.3002 22.9995 13.9002C22.9995 13.2002 22.9995 11.4003 23.0995 10.7003C23.3995 7.20025 25.2995 3.80026 28.4995 1.90026C29.8995 1.10026 31.5995 0.700258 33.2995 0.800258L37.3995 1.20025C42.3995 1.80025 56.1995 3.10025 61.4995 3.50025Z" fill="black"/>
<path d="M84.6998 5.10015C86.8998 4.80015 97.6998 3.60014 99.6998 3.40014C100.2 3.40014 101.5 3.20014 101.9 3.20014C106.2 2.60014 108.2 7.30014 108.6 10.8001C108.8 13.9001 108.6 16.9001 108.7 19.9001C108.7 22.0001 108.5 24.1001 108 26.1001C106.7 31.5001 102.9 37.2001 96.5998 35.4001C95.0998 35.1001 92.0998 34.7001 90.6998 34.4001L89.1998 34.1001C86.2998 33.6001 83.8998 31.6001 82.2998 29.4001C79.2998 25.9001 79.8998 21.2001 79.5998 17.0001C79.1998 12.8001 79.2998 6.30015 84.6998 5.10015ZM85.0998 8.00014C81.9998 9.40014 82.7998 14.1001 82.7998 16.9001L82.9998 22.9001C83.0998 26.7001 86.0998 30.5001 89.6998 31.5001C90.5998 31.7001 93.0998 32.2001 94.0998 32.4001L96.9998 33.0001C104.2 35.3001 107 25.3001 106.9 19.8001C106.6 15.2001 108 9.70014 104.7 6.00014C103.9 5.20014 103.1 5.00014 102.2 5.20014C101.7 5.30014 100.4 5.50015 99.9998 5.60015C97.9998 6.00015 87.1998 7.70014 85.0998 8.00014Z" fill="black"/>
<path d="M24.5998 14.4004C23.7998 16.2004 23.0998 16.0004 21.6998 16.0004L18.7998 15.9004C15.0998 15.7004 10.9998 15.4004 7.29977 14.9004C5.29977 14.6004 3.19976 14.3004 1.19976 13.8004C0.399764 13.6004 -0.100235 12.8004 0.0997653 12.0004C0.299765 11.3004 0.899765 10.8004 1.59977 10.9004L7.39977 11.2004L13.1998 11.4004C15.0998 11.5004 19.9998 11.6004 21.8998 11.7004C22.8998 11.7004 23.7998 11.8004 24.7998 11.5004C25.1998 11.4004 25.5998 11.6004 25.6998 12.0004C25.7998 12.2004 25.6998 12.3004 25.6998 12.5004L24.5998 14.4004Z" fill="black"/>
<path d="M67.1998 12.3001C70.7998 10.3001 80.2998 7.50013 82.0998 12.9001C82.8998 14.3001 80.7998 15.6001 79.8998 14.2001C79.8998 14.4001 79.3998 14.2001 79.1998 14.2001C75.3998 13.9001 71.4998 14.5001 67.6998 14.8001C66.0998 15.0001 65.7998 12.9001 67.1998 12.3001Z" fill="black"/>
</svg>
