<svg width="54" height="36" viewBox="0 0 54 36" fill="none" xmlns="http://www.w3.org/2000/svg">
<path d="M27.5003 12.2996C27.5003 12.2996 12.2003 2.99963 5.90034 4.59963C-0.499661 6.19963 1.70035 29.1996 5.80035 32.8996C9.90035 36.5996 27.4003 24.7996 28.5003 23.7996C29.6003 22.7996 29.0003 13.8996 27.5003 12.2996Z" fill="white"/>
<path d="M25.9003 14.2997C26.0003 14.3997 26.1003 14.3997 25.9003 14.2997C24.6003 13.0997 23.2003 11.9997 21.8003 11.0997C17.3003 8.29975 11.6003 4.99974 6.20032 5.79974C5.80032 5.89974 5.40033 6.29975 5.10033 6.59975C3.60033 8.69975 3.40032 11.4997 3.20032 14.0997C3.10032 17.7997 3.40033 21.4997 4.10033 25.0997C4.60033 27.3997 5.30031 30.3997 6.90031 31.8997C7.30031 32.1997 8.00033 32.1997 8.60033 32.0997C12.0003 31.6997 15.4003 29.6997 18.4003 28.0997C21.4003 26.3997 24.3003 24.4997 27.0003 22.2997L26.9003 22.3997C26.8003 22.4997 26.7003 22.7997 26.7003 22.6997C26.7003 22.6997 26.7003 22.6997 26.7003 22.5997V22.3997C26.9003 19.6997 26.6003 16.5997 25.5003 14.0997C25.5003 13.7997 25.7003 14.1997 25.9003 14.2997ZM29.1003 10.2997C30.4003 11.5997 30.6003 12.7997 30.9003 14.3997C31.3003 17.4997 31.6003 20.4997 30.9003 23.4997C30.7003 24.0997 30.4003 24.7997 29.8003 25.3997C25.3003 28.4997 9.90033 37.9998 5.10033 34.1998C0.100326 30.0998 -1.59968 7.39974 4.50032 3.89974C5.00032 3.59974 5.70032 3.39974 6.30032 3.29974C10.5003 2.89974 14.1003 4.59974 17.9003 5.89974C21.0003 7.09974 24.3003 8.39975 27.4003 9.59975C27.9003 9.79975 28.6003 9.99974 29.1003 10.2997Z" fill="black"/>
<path d="M33.3007 12.5001C33.3007 12.5001 39.3007 3.10008 45.4007 1.90008C51.4007 0.700076 54.2007 26.1001 51.5007 28.5001C48.8007 30.8001 36.2007 25.8001 34.8007 24.2001C33.3007 22.6001 32.4007 15.6001 33.3007 12.5001Z" fill="white"/>
<path d="M30.9007 11.4C31.0007 11.2 31.2007 10.9 31.4007 10.8C31.6007 10.7 32.0007 10.3 32.1007 10.2C35.6007 7.19998 38.4007 3.49998 42.6007 1.39998C43.2007 1.09998 43.9007 0.899984 44.5007 0.699984C44.7007 0.599984 45.0007 0.499987 45.2007 0.499987C52.5007 -0.600013 55.5007 24.1 53.1007 28.8C50.7007 33.6 36.9007 28.3 33.6007 26C30.7007 23.8 29.9007 14.8 30.9007 11.4ZM35.6007 13.5C35.1007 16.4 35.2007 20 36.3007 22.8C36.6007 23.1 37.0007 23.3 37.4007 23.5C39.9007 24.9 42.9007 26 45.7007 26.8C47.3007 27.2 48.9007 27.6 50.3007 27.2C50.8007 25.9 50.9007 22.8 50.8007 20.8C50.5007 15.6 49.9007 10.1 47.6007 5.29999C47.1007 4.39999 46.4007 2.99998 45.4007 3.19998C40.8007 4.49998 36.8007 8.89999 35.4007 13.5V13.6C35.4007 13.7 35.5007 13.6 35.5007 13.5C35.5007 13.6 35.6007 13.5 35.6007 13.5Z" fill="black"/>
<path d="M39.6003 20.5C39.9003 15 36.0003 10.3 30.8003 9.80001C25.6003 9.30001 21.1003 13.3 20.6003 18.8C20.2003 24.4 24.1003 29.3 29.4003 29.8C34.8003 30.2 39.3004 26 39.6003 20.5Z" fill="black"/>
<path d="M20.7003 18.7002C20.8003 26.6002 29.6003 32.1002 35.7003 26.6002C41.4003 21.5002 38.6003 11.2002 30.8003 9.7002C38.6003 9.7002 42.9003 19.3002 39.0003 25.6002C33.2003 35.4002 18.9003 29.7002 20.7003 18.7002Z" fill="white"/>
</svg>
